# xmcd
#
# Track frame offsets:
#	150
#	12890
#	26055
#	40910
#	54260
#	69768
#	86563
#	101830
#	114363
#	127753
#	144078
#	159725
#	172453
#	187478
#	199053
#	212635
#	225570
#	241863
#	257810
#	271225
#
# Disc length: 3869 seconds
#
# Revision: 1
# Processed by: cddbd v1.5.1PL0 Copyright (c) Steve Scherf et al.
# Submitted via: audiograbber 1.83.01
#
DISCID=140f1b14
DTITLE=Various Artist - Country Collection Vol. 1, Disc 4
DYEAR=1900
DGENRE=Country
TTITLE0=Michael Martin Murphy - What's Forever For
TTITLE1=John Anderson - Would You Catch A Falling Star
TTITLE2=Mickey Gilley - Fool For Your Love
TTITLE3=B. J. Thomas - New Looks From An Old Lover
TTITLE4=Ronnie McDowell - Personally
TTITLE5=Lee Greenwood - Somebody's Gonna Love You
TTITLE6=John Conlee - As Long As I'm Rockin' With You
TTITLE7=Vern Gosdin - I Can Tell By the Way You Dance
TTITLE8=Conway Twitty - I Don't Know A Thing About Love
TTITLE9=Don Williams - That's the Thing About Love
TTITLE10=Judds - Why Not Me
TTITLE11=George Strait - The Chair
TTITLE12=George Strait - The Cowboy Rides Away
TTITLE13=George Strait - The Fireman
TTITLE14=T. Graham Brown - I Tell It Like It Used To Be
TTITLE15=O'Kanes - Oh Darlin'
TTITLE16=Exile - She's A Miracle
TTITLE17=Reba McEntire - Somebody Should Leave
TTITLE18=Randy Travis - Diggin' Up Bones
TTITLE19=Judds - Grandpa (Tell Me 'bout the Good Old Days)
EXTD=Promotional Copy Only\n1993 Tree Productions TP 0002 - DIDX 015551
EXTT0=1982
EXTT1=1982
EXTT2=1983
EXTT3=1983
EXTT4=1983
EXTT5=1983
EXTT6=1984
EXTT7=1984
EXTT8=1984
EXTT9=1984
EXTT10=1984
EXTT11=1985
EXTT12=1985
EXTT13=1985
EXTT14=1985
EXTT15=1985
EXTT16=1985
EXTT17=1985
EXTT18=1986
EXTT19=1986
PLAYORDER=
